# Blender v2.79 (sub 0) OBJ File: ''
# www.blender.org
mtllib arwing.mtl
o Arwing_SNES_Vert.001
v -0.739675 0.163156 0.017308
v -0.030895 0.654353 0.009612
v 0.720992 0.232544 -0.011495
v -0.000720 0.015248 0.000224
v -0.069648 0.646530 -1.974485
v -0.058480 1.238600 0.018195
v 1.981562 0.094132 -0.039074
v -1.981562 -0.094132 0.039074
v 0.161631 -0.108921 7.934330
v 0.023392 -0.495440 -0.007278
v -0.030306 0.020423 -1.487687
v 8.804312 0.739390 -5.131152
v 2.530650 -0.398197 1.431566
v 3.980139 0.656474 1.912712
v -9.029743 -0.107800 -4.779483
v -2.423254 -0.633528 1.529252
v -3.946108 0.279945 2.069009
v -0.069137 0.642540 -1.958176
v 1.961561 0.095666 -0.042119
v -0.058080 1.228689 0.014577
v -1.961931 -0.090716 0.035248
v 0.022973 -0.488010 -0.010641
v -0.030188 0.022694 -1.476246
v -0.030771 0.650285 0.006081
v -0.732464 0.164000 0.013699
v 0.713597 0.232693 -0.014816
v -0.000898 0.017570 -0.003214
v -2.045361 0.428538 -1.937230
v -3.173306 2.872287 -2.873095
v -1.917762 -0.616803 2.015379
v 1.917762 0.616803 -2.015379
v 2.771379 3.154684 -2.990318
v 2.045361 -0.428538 1.937230
v -2.055269 0.428067 -1.937035
v -1.927670 -0.617273 2.015574
v -3.183213 2.871816 -2.872900
v 1.907854 0.616332 -2.015184
v 2.035454 -0.429009 1.937426
v 2.761472 3.154213 -2.990123
vn 0.4678 0.8465 -0.2541
vn -0.5555 0.7979 -0.2340
vn -0.5617 0.8129 0.1540
vn 0.4877 0.8627 0.1333
vn -0.1932 -0.9287 -0.3166
vn 0.2677 -0.9068 -0.3257
vn 0.2887 -0.9565 0.0415
vn -0.1949 -0.9795 0.0511
vn -0.1159 -0.9541 -0.2761
vn 0.4847 -0.8131 0.3224
vn -0.1719 0.9794 -0.1062
vn -0.6185 0.6461 0.4472
vn 0.1948 -0.9393 -0.2823
vn -0.3924 -0.8548 0.3396
vn 0.0740 0.9911 -0.1110
vn 0.5716 0.7026 0.4238
vn -0.4678 -0.8465 0.2541
vn 0.5555 -0.7979 0.2340
vn 0.1932 0.9287 0.3166
vn -0.2677 0.9068 0.3257
vn -0.0204 0.0137 -0.9997
vn 0.8909 0.4453 0.0890
vn 0.9249 -0.3591 -0.1248
vn -0.8909 -0.4453 -0.0890
vn -0.9249 0.3591 0.1248
usemtl Material.001
s off
f 5//1 6//1 7//1
f 8//2 6//2 5//2
f 6//3 8//3 9//3
f 9//4 7//4 6//4
f 10//5 8//5 11//5
f 10//6 11//6 7//6
f 9//7 10//7 7//7
f 10//8 9//8 8//8
f 12//9 13//9 7//9
f 12//10 14//10 13//10
f 14//11 12//11 7//11
f 14//12 7//12 13//12
f 15//13 8//13 16//13
f 15//14 16//14 17//14
f 17//15 8//15 15//15
f 17//16 16//16 8//16
f 18//17 19//17 20//17
f 21//18 18//18 20//18
f 22//19 23//19 21//19
f 22//20 19//20 23//20
f 24//21 25//21 21//21 20//21
f 26//21 24//21 20//21 19//21
f 25//21 27//21 22//21 21//21
f 27//21 26//21 19//21 22//21
usemtl Material.002
f 28//22 29//22 30//22
f 31//23 32//23 33//23
f 34//24 35//24 36//24
f 37//25 38//25 39//25
usemtl Material.003
s 1
f 1//21 2//21 3//21 4//21
